<svg width="29" height="29" viewBox="0 0 29 29" fill="none" xmlns="http://www.w3.org/2000/svg">
<path d="M5.29169 0.375H24.25C25.4103 0.375 26.5231 0.835936 27.3436 1.65641C28.1641 2.47688 28.625 3.58968 28.625 4.75V17.875C28.625 19.0353 28.1641 20.1481 27.3436 20.9686C26.5231 21.7891 25.4103 22.25 24.25 22.25H17.5621L12.1561 27.656C11.9521 27.8599 11.6923 27.9988 11.4094 28.055C11.1266 28.1113 10.8334 28.0824 10.567 27.972C10.3005 27.8617 10.0728 27.6748 9.91256 27.435C9.75231 27.1953 9.66675 26.9134 9.66669 26.625V22.25H5.29169C4.13137 22.25 3.01857 21.7891 2.19809 20.9686C1.37762 20.1481 0.916687 19.0353 0.916687 17.875V4.75C0.916687 3.58968 1.37762 2.47688 2.19809 1.65641C3.01857 0.835936 4.13137 0.375 5.29169 0.375ZM24.25 1.83333H5.29169C4.51814 1.83333 3.77627 2.14062 3.22929 2.6876C2.68231 3.23459 2.37502 3.97645 2.37502 4.75V17.875C2.37502 18.6485 2.68231 19.3904 3.22929 19.9374C3.77627 20.4844 4.51814 20.7917 5.29169 20.7917H11.125V26.625L16.9584 20.7917H24.25C25.0236 20.7917 25.7654 20.4844 26.3124 19.9374C26.8594 19.3904 27.1667 18.6485 27.1667 17.875V4.75C27.1667 3.97645 26.8594 3.23459 26.3124 2.6876C25.7654 2.14062 25.0236 1.83333 24.25 1.83333Z" fill="black"/>
</svg>
