<svg width="35" height="35" viewBox="0 0 35 35" fill="none" xmlns="http://www.w3.org/2000/svg">
<g clip-path="url(#clip0_1983_179)">
<path d="M15.6042 21.3888C21.6446 21.3888 26.5417 23.674 26.5417 26.493V30.1388H4.66669V26.493C4.66669 23.674 9.56377 21.3888 15.6042 21.3888ZM25.0834 26.493C25.0834 24.4805 20.8396 22.8471 15.6042 22.8471C10.3688 22.8471 6.12502 24.4805 6.12502 26.493V28.6805H25.0834V26.493ZM15.6042 8.26379C16.9579 8.26379 18.2562 8.80155 19.2134 9.75877C20.1706 10.716 20.7084 12.0143 20.7084 13.368C20.7084 14.7217 20.1706 16.0199 19.2134 16.9772C18.2562 17.9344 16.9579 18.4721 15.6042 18.4721C14.2505 18.4721 12.9522 17.9344 11.995 16.9772C11.0378 16.0199 10.5 14.7217 10.5 13.368C10.5 12.0143 11.0378 10.716 11.995 9.75877C12.9522 8.80155 14.2505 8.26379 15.6042 8.26379ZM15.6042 9.72213C14.6373 9.72213 13.7099 10.1062 13.0262 10.79C12.3425 11.4737 11.9584 12.401 11.9584 13.368C11.9584 14.3349 12.3425 15.2622 13.0262 15.946C13.7099 16.6297 14.6373 17.0138 15.6042 17.0138C16.5711 17.0138 17.4985 16.6297 18.1822 15.946C18.8659 15.2622 19.25 14.3349 19.25 13.368C19.25 12.401 18.8659 11.4737 18.1822 10.79C17.4985 10.1062 16.5711 9.72213 15.6042 9.72213Z" fill="black"/>
<path d="M23.2637 15.1358V14.3305H28.0956V9.49854H28.9009V14.3305H33.7329V15.1358H28.9009V19.9677H28.0956V15.1358H23.2637Z" fill="black"/>
</g>
<defs>
<clipPath id="clip0_1983_179">
<rect width="35" height="35" fill="white"/>
</clipPath>
</defs>
</svg>
