<svg width="26" height="29" viewBox="0 0 26 29" fill="none" xmlns="http://www.w3.org/2000/svg">
<path d="M13.5 2.5625C13.5 2.36911 13.4232 2.18365 13.2864 2.0469C13.1497 1.91016 12.9642 1.83333 12.7708 1.83333C12.5774 1.83333 12.392 1.91016 12.2552 2.0469C12.1185 2.18365 12.0417 2.36911 12.0417 2.5625V4.78938C10.4372 4.96876 8.95519 5.73327 7.87901 6.93671C6.80283 8.14015 6.20802 9.69806 6.20833 11.3125V19.9371L3.89542 22.25H21.6462L19.3333 19.9371V11.3125C19.3336 9.69806 18.7388 8.14015 17.6627 6.93671C16.5865 5.73327 15.1044 4.96876 13.5 4.78938V2.5625ZM12.7708 0.375C13.351 0.375 13.9074 0.605468 14.3176 1.0157C14.7279 1.42594 14.9583 1.98234 14.9583 2.5625V3.59354C18.3256 4.54583 20.7917 7.64042 20.7917 11.3125V19.3333L25.1667 23.7083H0.375L4.75 19.3333V11.3125C4.75 9.56639 5.3196 7.86794 6.37235 6.47489C7.42511 5.08183 8.90355 4.07021 10.5833 3.59354V2.5625C10.5833 1.98234 10.8138 1.42594 11.224 1.0157C11.6343 0.605468 12.1907 0.375 12.7708 0.375ZM12.7708 28.0833C11.9304 28.0835 11.1156 27.7933 10.4645 27.2618C9.81347 26.7303 9.36601 25.9902 9.19792 25.1667H10.7073C10.8576 25.594 11.1368 25.964 11.5065 26.2258C11.8761 26.4876 12.3179 26.6283 12.7708 26.6283C13.2238 26.6283 13.6656 26.4876 14.0352 26.2258C14.4048 25.964 14.6841 25.594 14.8344 25.1667H16.3437C16.1757 25.9902 15.7282 26.7303 15.0771 27.2618C14.426 27.7933 13.6113 28.0835 12.7708 28.0833Z" fill="black"/>
</svg>
